<svg xmlns="http://www.w3.org/2000/svg" viewBox="0 0 24 24" fill="#2563eb">
  <path d="M9 3.5c-1.93 0-3.5 1.57-3.5 3.5s1.57 3.5 3.5 3.5 3.5-1.57 3.5-3.5S10.93 3.5 9 3.5zM15 13.5c-1.93 0-3.5 1.57-3.5 3.5s1.57 3.5 3.5 3.5 3.5-1.57 3.5-3.5-1.57-3.5-3.5-3.5zM5 13.5c-1.93 0-3.5 1.57-3.5 3.5s1.57 3.5 3.5 3.5S8.5 18.93 8.5 17s-1.57-3.5-3.5-3.5zM9.91 9.66L16.96 14.34c.18-.56.54-1.02 1.04-1.34L11.04 8.66c-.51.32-1.13.32-1.64 0L7.5 9.5c.36.32.72.7 1.04 1.16h1.37zM8.5 11L10.34 9.66c-.18.56-.54 1.02-1.04 1.34L7.5 11.5c.36-.32.72-.7 1.04-1.16L8.5 11z"/>
</svg>