<svg xmlns="http://www.w3.org/2000/svg" viewBox="0 0 48 48" width="48" height="48">
  <!-- Dark background with rounded corners -->
  <rect width="48" height="48" fill="#0a0e0a" rx="8"/>

  <!-- Simplified hexagon neural network icon in bright green -->
  <!-- Outer hexagon points -->
  <circle cx="24" cy="8" r="2.5" fill="#00ff41" opacity="0.9"/>
  <circle cx="38" cy="16" r="2.5" fill="#00ff41" opacity="0.9"/>
  <circle cx="38" cy="32" r="2.5" fill="#00ff41" opacity="0.9"/>
  <circle cx="24" cy="40" r="2.5" fill="#00ff41" opacity="0.9"/>
  <circle cx="10" cy="32" r="2.5" fill="#00ff41" opacity="0.9"/>
  <circle cx="10" cy="16" r="2.5" fill="#00ff41" opacity="0.9"/>

  <!-- Center node - larger and brighter -->
  <circle cx="24" cy="24" r="3.5" fill="#39ff14" opacity="1"/>

  <!-- Connection lines -->
  <line x1="24" y1="8" x2="24" y2="24" stroke="#00ff41" stroke-width="1.5" opacity="0.6"/>
  <line x1="38" y1="16" x2="24" y2="24" stroke="#00ff41" stroke-width="1.5" opacity="0.6"/>
  <line x1="38" y1="32" x2="24" y2="24" stroke="#00ff41" stroke-width="1.5" opacity="0.6"/>
  <line x1="24" y1="40" x2="24" y2="24" stroke="#00ff41" stroke-width="1.5" opacity="0.6"/>
  <line x1="10" y1="32" x2="24" y2="24" stroke="#00ff41" stroke-width="1.5" opacity="0.6"/>
  <line x1="10" y1="16" x2="24" y2="24" stroke="#00ff41" stroke-width="1.5" opacity="0.6"/>

  <!-- Outer hexagon connections -->
  <line x1="24" y1="8" x2="38" y2="16" stroke="#00ff41" stroke-width="1" opacity="0.4"/>
  <line x1="38" y1="16" x2="38" y2="32" stroke="#00ff41" stroke-width="1" opacity="0.4"/>
  <line x1="38" y1="32" x2="24" y2="40" stroke="#00ff41" stroke-width="1" opacity="0.4"/>
  <line x1="24" y1="40" x2="10" y2="32" stroke="#00ff41" stroke-width="1" opacity="0.4"/>
  <line x1="10" y1="32" x2="10" y2="16" stroke="#00ff41" stroke-width="1" opacity="0.4"/>
  <line x1="10" y1="16" x2="24" y2="8" stroke="#00ff41" stroke-width="1" opacity="0.4"/>
</svg>
