<svg xmlns="http://www.w3.org/2000/svg" viewBox="0 0 24 24" fill="#2563eb">
  <path d="M13,2V8C17.39,8.54 20.5,11.69 21,16H23A1,1 0 0,1 24,17A1,1 0 0,1 23,18H21C20.5,22.31 17.39,25.46 13,26V32A1,1 0 0,1 12,33A1,1 0 0,1 11,32V26C6.61,25.46 3.5,22.31 3,18H1A1,1 0 0,1 0,17A1,1 0 0,1 1,16H3C3.5,11.69 6.61,8.54 11,8V2A1,1 0 0,1 12,1A1,1 0 0,1 13,2M12,10A7,7 0 0,0 5,17A7,7 0 0,0 12,24A7,7 0 0,0 19,17A7,7 0 0,0 12,10M12,12A5,5 0 0,1 17,17A5,5 0 0,1 12,22A5,5 0 0,1 7,17A5,5 0 0,1 12,12M12,14A3,3 0 0,0 9,17A3,3 0 0,0 12,20A3,3 0 0,0 15,17A3,3 0 0,0 12,14M12,16A1,1 0 0,1 13,17A1,1 0 0,1 12,18A1,1 0 0,1 11,17A1,1 0 0,1 12,16Z"/>
</svg>