<svg xmlns="http://www.w3.org/2000/svg" xmlns:xlink="http://www.w3.org/1999/xlink" width="192" zoomAndPan="magnify" viewBox="0 0 144 143.999998" height="192" preserveAspectRatio="xMidYMid meet" version="1.0"><defs><clipPath id="757e0f81b8"><path d="M 15.40625 14.398438 L 128.65625 14.398438 L 128.65625 129.898438 L 15.40625 129.898438 Z M 15.40625 14.398438 " clip-rule="nonzero"/></clipPath></defs><g clip-path="url(#757e0f81b8)"><path fill="#39FF14" d="M 128.558594 70.945312 C 128.550781 70.890625 128.539062 70.835938 128.523438 70.78125 C 128.511719 70.726562 128.492188 70.671875 128.476562 70.621094 C 128.457031 70.566406 128.433594 70.515625 128.410156 70.464844 C 128.386719 70.414062 128.359375 70.363281 128.332031 70.316406 C 128.300781 70.269531 128.269531 70.222656 128.234375 70.175781 C 128.203125 70.132812 128.164062 70.089844 128.128906 70.046875 C 128.089844 70.003906 128.050781 69.964844 128.007812 69.929688 C 127.597656 69.566406 127.15625 69.492188 126.636719 69.40625 L 121.632812 53.832031 C 120.539062 50.507812 119.324219 47.183594 118.386719 43.816406 C 118.925781 43.511719 119.332031 43.089844 119.503906 42.484375 C 119.644531 41.980469 119.585938 41.414062 119.3125 40.96875 C 119.28125 40.914062 119.246094 40.867188 119.210938 40.816406 C 119.171875 40.769531 119.132812 40.722656 119.09375 40.679688 C 119.050781 40.636719 119.007812 40.59375 118.960938 40.554688 C 118.917969 40.515625 118.867188 40.480469 118.820312 40.445312 C 118.769531 40.410156 118.71875 40.378906 118.664062 40.347656 C 118.613281 40.320312 118.558594 40.292969 118.503906 40.269531 C 118.445312 40.246094 118.390625 40.226562 118.332031 40.207031 C 118.273438 40.191406 118.214844 40.175781 118.15625 40.164062 C 117.539062 40.035156 117.019531 40.253906 116.488281 40.542969 C 108.066406 35.421875 99.539062 30.484375 90.90625 25.726562 C 87.792969 24.046875 84.695312 22.308594 81.546875 20.691406 C 78.9375 19.34375 76.113281 18.132812 73.695312 16.460938 C 73.6875 15.894531 73.59375 15.332031 73.160156 14.921875 C 72.777344 14.558594 72.269531 14.476562 71.761719 14.492188 C 71.738281 14.492188 71.71875 14.496094 71.695312 14.496094 C 71.179688 14.726562 70.816406 14.957031 70.601562 15.511719 C 70.492188 15.796875 70.425781 16.117188 70.355469 16.414062 C 67.144531 18.355469 63.839844 20.074219 60.542969 21.859375 C 55.378906 24.636719 50.238281 27.464844 45.125 30.34375 L 34.21875 36.625 C 32.050781 37.894531 29.792969 39.429688 27.511719 40.445312 C 26.925781 40.199219 26.320312 40.042969 25.703125 40.277344 C 25.242188 40.453125 24.886719 40.824219 24.699219 41.273438 C 24.507812 41.742188 24.496094 42.289062 24.691406 42.757812 C 24.902344 43.261719 25.285156 43.574219 25.757812 43.820312 L 19.734375 62.433594 C 19 64.75 18.109375 67.046875 17.5 69.394531 C 16.820312 69.472656 16.21875 69.574219 15.765625 70.144531 C 15.730469 70.1875 15.699219 70.230469 15.671875 70.277344 C 15.640625 70.324219 15.613281 70.371094 15.589844 70.421875 C 15.5625 70.46875 15.539062 70.519531 15.519531 70.570312 C 15.5 70.621094 15.484375 70.671875 15.46875 70.726562 C 15.453125 70.78125 15.441406 70.832031 15.433594 70.886719 C 15.421875 70.941406 15.417969 70.996094 15.410156 71.050781 C 15.40625 71.105469 15.40625 71.160156 15.40625 71.214844 C 15.410156 71.269531 15.414062 71.324219 15.421875 71.378906 C 15.429688 71.433594 15.4375 71.492188 15.449219 71.546875 C 15.460938 71.601562 15.476562 71.65625 15.496094 71.710938 C 15.515625 71.765625 15.535156 71.816406 15.558594 71.871094 C 15.582031 71.921875 15.605469 71.972656 15.632812 72.023438 C 15.664062 72.070312 15.691406 72.117188 15.726562 72.164062 C 15.757812 72.210938 15.792969 72.257812 15.832031 72.300781 C 15.867188 72.34375 15.90625 72.382812 15.949219 72.421875 C 15.988281 72.460938 16.03125 72.5 16.078125 72.535156 C 16.5 72.867188 17.003906 72.953125 17.519531 73.019531 C 17.808594 74.214844 18.210938 75.398438 18.566406 76.578125 C 19.210938 78.742188 19.867188 80.898438 20.539062 83.054688 C 22.375 88.972656 24.128906 94.910156 25.800781 100.875 C 25.289062 101.21875 24.890625 101.566406 24.773438 102.207031 C 24.761719 102.265625 24.753906 102.320312 24.75 102.378906 C 24.746094 102.4375 24.746094 102.492188 24.746094 102.550781 C 24.746094 102.609375 24.75 102.667969 24.757812 102.722656 C 24.765625 102.78125 24.773438 102.835938 24.785156 102.894531 C 24.800781 102.949219 24.8125 103.003906 24.832031 103.058594 C 24.851562 103.113281 24.871094 103.167969 24.894531 103.21875 C 24.914062 103.273438 24.941406 103.324219 24.96875 103.375 C 24.996094 103.425781 25.027344 103.472656 25.0625 103.519531 C 25.09375 103.570312 25.128906 103.613281 25.164062 103.660156 C 25.203125 103.703125 25.238281 103.746094 25.28125 103.785156 C 25.324219 103.824219 25.367188 103.863281 25.410156 103.898438 C 25.457031 103.933594 25.503906 103.96875 25.550781 104 C 25.597656 104.027344 25.648438 104.058594 25.699219 104.082031 C 25.753906 104.109375 25.804688 104.132812 25.859375 104.152344 C 25.910156 104.171875 25.964844 104.191406 26.023438 104.207031 C 26.078125 104.222656 26.132812 104.234375 26.191406 104.242188 C 26.746094 104.324219 27.203125 104.125 27.667969 103.84375 C 37.644531 109.679688 47.726562 115.324219 57.917969 120.777344 C 60.835938 122.371094 63.769531 123.945312 66.710938 125.496094 C 67.929688 126.136719 69.148438 126.816406 70.390625 127.414062 C 70.398438 128.015625 70.445312 128.613281 70.894531 129.066406 C 71.214844 129.386719 71.679688 129.527344 72.128906 129.503906 C 72.238281 129.5 72.347656 129.480469 72.457031 129.464844 C 72.972656 129.238281 73.378906 128.949219 73.589844 128.410156 C 73.695312 128.148438 73.714844 127.871094 73.707031 127.59375 C 75.039062 126.804688 76.421875 126.105469 77.785156 125.375 L 83.257812 122.40625 L 100.546875 112.984375 C 104.132812 110.988281 107.695312 108.953125 111.242188 106.886719 C 113.007812 105.863281 114.714844 104.699219 116.554688 103.816406 C 117.140625 104.140625 117.710938 104.402344 118.394531 104.199219 C 118.449219 104.183594 118.5 104.164062 118.554688 104.140625 C 118.609375 104.121094 118.660156 104.09375 118.710938 104.070312 C 118.761719 104.042969 118.808594 104.011719 118.855469 103.980469 C 118.90625 103.949219 118.949219 103.914062 118.992188 103.875 C 119.039062 103.839844 119.078125 103.800781 119.121094 103.761719 C 119.160156 103.71875 119.195312 103.675781 119.234375 103.628906 C 119.269531 103.585938 119.300781 103.539062 119.332031 103.492188 C 119.363281 103.441406 119.390625 103.394531 119.417969 103.339844 C 119.617188 102.933594 119.628906 102.460938 119.480469 102.035156 C 119.285156 101.480469 118.898438 101.179688 118.429688 100.875 C 119.136719 97.984375 120.074219 95.167969 120.917969 92.316406 C 122.855469 85.886719 124.746094 79.445312 126.597656 72.992188 C 127.191406 72.960938 127.710938 72.832031 128.132812 72.375 C 128.449219 72.03125 128.597656 71.582031 128.574219 71.117188 C 128.570312 71.058594 128.566406 71.003906 128.558594 70.949219 Z M 71.921875 86.566406 C 71.917969 87.765625 71.808594 89.253906 71.9375 90.410156 L 57.167969 90.492188 C 56.640625 90.488281 56.117188 90.488281 55.59375 90.496094 C 56.148438 89.863281 56.898438 89.398438 57.570312 88.898438 C 58.625 88.109375 59.679688 87.324219 60.722656 86.523438 C 64.027344 83.976562 67.214844 81.3125 70.59375 78.859375 C 70.667969 78.890625 70.71875 78.925781 70.78125 78.984375 C 71.136719 79.3125 71.457031 79.550781 71.90625 79.734375 Z M 71.882812 75.414062 C 71.875 75.644531 71.863281 75.878906 71.765625 76.089844 C 71.714844 76.105469 71.683594 76.121094 71.625 76.117188 C 70.984375 76.066406 70.089844 74.605469 69.699219 74.085938 C 68.855469 72.945312 67.839844 71.867188 67.109375 70.65625 C 67.136719 70.296875 67.207031 69.808594 67.0625 69.472656 C 66.992188 69.304688 66.871094 69.171875 66.816406 68.992188 C 68.324219 66.914062 69.667969 64.71875 71.105469 62.589844 L 71.902344 62.734375 L 71.839844 70.460938 C 71.84375 72.109375 71.941406 73.765625 71.882812 75.414062 Z M 54.265625 71.105469 C 54.199219 71.875 54.179688 72.644531 54.210938 73.417969 L 54.203125 73.640625 C 54.089844 75.46875 54.203125 77.304688 54.101562 79.128906 L 53.984375 86.144531 C 53.972656 87.214844 53.859375 88.34375 53.960938 89.40625 C 52.953125 87.679688 52.238281 85.734375 51.414062 83.914062 L 47.652344 75.800781 C 47.375 75.210938 47.105469 74.617188 46.84375 74.019531 C 46.648438 73.5625 46.484375 73.078125 46.246094 72.644531 C 46.609375 72.230469 46.90625 71.851562 46.929688 71.265625 C 46.953125 70.730469 46.714844 70.277344 46.363281 69.898438 C 48.46875 65.371094 50.789062 60.929688 53.050781 56.480469 C 53.507812 55.574219 54.011719 54.695312 54.460938 53.789062 C 54.667969 55.582031 54.46875 57.472656 54.425781 59.28125 L 54.300781 67.785156 C 54.285156 68.875 54.164062 70.027344 54.265625 71.105469 Z M 36.417969 52.640625 C 39.585938 52.621094 42.761719 52.691406 45.929688 52.617188 C 46.597656 52.546875 52.722656 52.570312 53.050781 52.679688 C 53.175781 52.808594 53.222656 52.871094 53.273438 53.046875 C 52.972656 53.445312 43.699219 57.976562 42.425781 58.617188 C 41.722656 58.972656 41.023438 59.328125 40.304688 59.652344 C 39.921875 59.480469 39.527344 59.390625 39.117188 59.304688 C 38.628906 58.421875 38.078125 57.570312 37.570312 56.703125 C 36.992188 55.710938 36.441406 54.710938 35.910156 53.695312 C 36.132812 53.351562 36.28125 53.023438 36.417969 52.640625 Z M 36.082031 51.59375 C 37.480469 50.140625 38.925781 48.714844 40.289062 47.226562 C 41.289062 47.667969 42.40625 47.976562 43.441406 48.339844 L 50.121094 50.699219 C 50.972656 51.003906 51.9375 51.257812 52.746094 51.652344 C 52.878906 51.714844 53 51.785156 53.082031 51.90625 C 53.136719 51.980469 53.109375 52.03125 53.097656 52.121094 C 53.078125 52.113281 53.0625 52.101562 53.042969 52.101562 L 53 52.136719 L 52.984375 52.09375 L 52.941406 52.140625 C 51.636719 52.203125 50.296875 52.128906 48.988281 52.125 L 36.355469 52.160156 Z M 40.5 60.148438 C 42.386719 59.089844 44.34375 58.1875 46.289062 57.242188 C 48.730469 56.050781 51.152344 54.824219 53.554688 53.554688 C 53.628906 53.613281 53.777344 53.691406 53.789062 53.785156 C 53.804688 53.910156 53.773438 54.03125 53.722656 54.144531 C 53.210938 55.273438 52.601562 56.398438 52.03125 57.503906 L 49.714844 62.054688 C 49.171875 63.132812 46.289062 69.148438 45.894531 69.539062 C 45.640625 69.785156 45.007812 69.710938 44.683594 69.710938 C 44.171875 68.796875 43.679688 67.855469 43.125 66.964844 C 42.542969 65.773438 41.890625 64.605469 41.257812 63.4375 C 40.886719 62.75 40.539062 62 40.089844 61.363281 C 40.367188 60.945312 40.492188 60.652344 40.5 60.148438 Z M 43.027344 75.71875 C 43.589844 74.738281 44.183594 73.765625 44.6875 72.753906 C 45.0625 72.789062 45.40625 72.785156 45.777344 72.753906 C 46.199219 73.527344 46.523438 74.378906 46.886719 75.1875 C 47.5 76.554688 48.125 77.914062 48.757812 79.273438 L 51.253906 84.667969 C 51.976562 86.210938 52.761719 87.777344 53.332031 89.382812 L 52.757812 89.84375 C 51.886719 89.328125 51 88.832031 50.125 88.324219 C 48.472656 87.449219 46.859375 86.476562 45.238281 85.542969 L 40.039062 82.609375 C 40.035156 82.152344 40.023438 81.808594 39.824219 81.382812 C 40.851562 79.476562 41.949219 77.601562 43.027344 75.71875 Z M 39.414062 81.054688 C 39.242188 81.066406 39.066406 81.078125 38.894531 81.09375 C 38.558594 81.132812 38.398438 81.195312 38.179688 81.464844 C 36.566406 80.742188 35 79.855469 33.425781 79.042969 C 31.429688 78.011719 29.414062 77.011719 27.449219 75.917969 C 27.5 74.859375 27.515625 73.78125 27.515625 72.71875 C 27.703125 72.65625 27.898438 72.59375 28.074219 72.503906 C 28.570312 72.242188 28.714844 71.78125 28.882812 71.289062 C 30.765625 71.351562 32.660156 71.3125 34.546875 71.320312 L 43.726562 71.4375 C 43.902344 71.847656 44.101562 72.1875 44.359375 72.546875 C 43.804688 73.507812 43.199219 74.433594 42.652344 75.402344 C 41.972656 76.605469 41.347656 77.867188 40.613281 79.039062 C 40.210938 79.710938 39.84375 80.394531 39.417969 81.054688 Z M 54.445312 86.402344 C 54.445312 84.28125 54.46875 82.164062 54.515625 80.042969 L 54.757812 67.347656 L 54.921875 58.507812 C 54.949219 56.996094 54.859375 55.476562 55.035156 53.972656 C 55.339844 54.089844 55.53125 54.3125 55.71875 54.574219 C 56.527344 55.71875 57.210938 56.972656 57.980469 58.152344 C 59.496094 60.46875 61.074219 62.746094 62.578125 65.074219 C 63.03125 65.777344 63.480469 66.484375 63.964844 67.164062 C 64.398438 67.777344 64.910156 68.394531 65.265625 69.054688 C 65.09375 69.308594 64.910156 69.558594 64.871094 69.871094 C 64.816406 70.304688 65.0625 70.625 65.320312 70.941406 C 64.332031 72.335938 63.5625 73.878906 62.730469 75.363281 L 58.398438 83.050781 C 57.570312 84.613281 56.652344 86.136719 55.792969 87.683594 C 55.539062 88.136719 55.171875 88.628906 54.996094 89.109375 C 54.960938 89.207031 54.925781 89.28125 54.875 89.371094 C 54.75 89.355469 54.710938 89.335938 54.605469 89.273438 C 54.496094 89.132812 54.445312 89.019531 54.4375 88.839844 C 54.40625 88.035156 54.445312 87.210938 54.445312 86.402344 Z M 70.648438 62.246094 L 67.980469 66.417969 C 67.425781 67.1875 66.878906 67.996094 66.386719 68.8125 L 65.675781 68.773438 C 65.003906 67.894531 64.429688 66.957031 63.808594 66.042969 C 62.457031 64.070312 61.132812 62.078125 59.835938 60.074219 L 57.714844 56.863281 C 57.058594 55.878906 56.390625 54.929688 55.851562 53.875 C 55.886719 53.683594 56.003906 53.636719 56.148438 53.515625 C 56.152344 53.515625 56.15625 53.519531 56.160156 53.519531 C 57.246094 53.953125 58.292969 54.59375 59.355469 55.101562 L 66.019531 58.285156 C 67.417969 58.964844 68.792969 59.683594 70.21875 60.304688 C 70.183594 61.097656 70.28125 61.539062 70.648438 62.246094 Z M 58.472656 83.949219 L 62.953125 75.851562 C 63.828125 74.308594 64.851562 72.785156 65.640625 71.199219 L 65.671875 71.136719 C 65.992188 71.105469 66.300781 71.054688 66.613281 70.992188 C 66.773438 71.011719 70.601562 75.988281 70.996094 76.488281 C 70.964844 76.519531 70.9375 76.546875 70.90625 76.578125 C 70.441406 77.054688 70.394531 77.75 70.402344 78.378906 C 68.679688 79.546875 67.054688 80.929688 65.40625 82.203125 C 62.910156 84.132812 60.378906 86.023438 57.925781 88.007812 C 57.484375 88.363281 55.945312 89.726562 55.476562 89.746094 L 55.425781 89.621094 C 55.523438 88.8125 57.90625 84.949219 58.472656 83.949219 Z M 71.828125 59.117188 C 71.238281 59.273438 70.855469 59.449219 70.433594 59.898438 C 70.085938 59.863281 67.472656 58.441406 66.964844 58.183594 C 65.796875 57.601562 56.730469 53.335938 56.554688 53.097656 C 56.464844 52.980469 56.476562 52.90625 56.488281 52.777344 C 56.726562 52.523438 57.421875 52.648438 57.757812 52.621094 L 57.8125 52.617188 C 59.734375 52.5 61.710938 52.585938 63.640625 52.585938 C 66.378906 52.585938 69.128906 52.535156 71.867188 52.609375 C 71.941406 54.765625 71.832031 56.957031 71.828125 59.117188 Z M 56.285156 51.183594 C 56.027344 50.957031 55.757812 50.765625 55.472656 50.570312 C 56.261719 48.816406 57.183594 47.113281 58.042969 45.394531 C 58.65625 44.179688 59.207031 42.894531 59.898438 41.71875 C 60.605469 42.09375 62.570312 42.582031 63.417969 42.835938 C 65.753906 43.546875 68.085938 44.277344 70.410156 45.03125 C 70.429688 45.316406 70.453125 45.597656 70.488281 45.878906 C 68.160156 46.703125 65.84375 47.558594 63.535156 48.4375 C 61.121094 49.351562 58.71875 50.332031 56.285156 51.183594 Z M 56.164062 48.074219 C 55.746094 48.863281 55.429688 49.660156 54.945312 50.421875 L 54.339844 50.589844 C 53.402344 48.371094 52.386719 46.191406 51.453125 43.96875 C 50.84375 42.527344 50.324219 41.003906 49.644531 39.597656 C 49.871094 39.339844 50.097656 39.089844 50.292969 38.804688 C 51.160156 39.164062 52.132812 39.394531 53.03125 39.671875 C 55.136719 40.324219 57.257812 40.933594 59.359375 41.601562 C 58.386719 43.796875 57.234375 45.925781 56.164062 48.074219 Z M 50.925781 43.832031 C 51.914062 46.148438 52.90625 48.453125 53.839844 50.789062 L 53.246094 51.351562 C 51.59375 50.773438 49.957031 50.140625 48.3125 49.535156 C 46.902344 49.101562 45.503906 48.554688 44.109375 48.070312 C 42.980469 47.679688 41.769531 47.347656 40.6875 46.839844 C 41.292969 46.167969 42.03125 45.597656 42.664062 44.945312 C 44.449219 43.113281 46.195312 41.132812 48.152344 39.492188 C 48.488281 39.558594 48.816406 39.660156 49.144531 39.75 C 49.8125 41.066406 50.34375 42.476562 50.925781 43.832031 Z M 47.460938 38.402344 C 44.546875 38.949219 41.601562 39.402344 38.675781 39.894531 C 35.847656 40.394531 33.015625 40.882812 30.183594 41.355469 C 29.5 41.371094 28.761719 41.539062 28.074219 41.605469 C 29.382812 40.976562 30.753906 40.445312 32.089844 39.867188 C 34.703125 38.726562 37.324219 37.613281 39.953125 36.515625 C 42 35.683594 44.140625 34.957031 46.09375 33.914062 C 46.15625 33.925781 46.132812 33.914062 46.183594 33.957031 C 46.578125 34.277344 47.011719 34.480469 47.519531 34.550781 C 47.734375 35.363281 47.980469 36.160156 48.242188 36.957031 C 47.773438 37.402344 47.617188 37.792969 47.460938 38.402344 Z M 34.785156 41.050781 C 38.941406 40.296875 43.105469 39.597656 47.277344 38.949219 C 47.421875 38.933594 47.46875 38.902344 47.597656 38.980469 L 47.605469 39.117188 C 47.324219 39.675781 40.992188 45.972656 40.175781 46.695312 C 37.359375 45.714844 34.554688 44.695312 31.765625 43.640625 C 30.59375 43.253906 29.128906 42.804688 28.042969 42.261719 C 30.261719 41.769531 32.546875 41.445312 34.785156 41.050781 Z M 28.132812 42.871094 C 29.605469 43.261719 31.066406 43.910156 32.5 44.429688 C 34.933594 45.308594 37.394531 46.128906 39.792969 47.097656 C 38.984375 47.84375 38.222656 48.644531 37.449219 49.425781 C 36.835938 50.027344 36.238281 50.652344 35.601562 51.230469 C 35.109375 51.113281 34.730469 51.074219 34.226562 51.171875 C 33.59375 50.234375 32.574219 49.253906 31.816406 48.367188 L 29.128906 45.21875 C 28.652344 44.664062 28.199219 44.0625 27.667969 43.558594 C 27.84375 43.34375 27.984375 43.109375 28.132812 42.871094 Z M 35.449219 53.988281 C 36.566406 55.804688 37.730469 57.683594 38.660156 59.601562 C 38.386719 59.957031 38.3125 60.265625 38.257812 60.703125 C 35.65625 62.066406 32.980469 63.28125 30.328125 64.539062 C 29.328125 65.007812 28.320312 65.460938 27.308594 65.902344 C 27.261719 65.113281 27.253906 64.316406 27.214844 63.523438 C 27.171875 62.699219 27.09375 61.871094 27.128906 61.046875 C 29.34375 58.574219 31.730469 56.136719 34.152344 53.875 C 34.507812 54.085938 35.050781 54.042969 35.449219 53.988281 Z M 38.511719 61.078125 C 38.839844 61.398438 39.238281 61.523438 39.6875 61.550781 C 41.261719 64.359375 42.714844 67.230469 44.320312 70.023438 C 44.066406 70.316406 43.902344 70.617188 43.742188 70.964844 C 43.195312 70.921875 42.632812 70.953125 42.089844 70.949219 L 39.65625 70.917969 L 33.28125 70.859375 C 31.835938 70.878906 30.390625 70.828125 28.945312 70.84375 C 28.835938 70.625 28.730469 70.386719 28.582031 70.191406 C 28.273438 69.78125 27.890625 69.714844 27.414062 69.640625 L 27.292969 66.503906 C 31.046875 64.726562 34.785156 62.917969 38.511719 61.078125 Z M 27.414062 76.515625 C 28.320312 76.921875 29.167969 77.410156 30.046875 77.867188 L 34.214844 80.015625 C 35.398438 80.636719 36.683594 81.132812 37.804688 81.859375 C 37.898438 82.300781 38.011719 82.640625 38.300781 83.003906 C 37.667969 84.359375 36.871094 85.644531 36.113281 86.933594 C 35.925781 87.273438 35.25 88.785156 34.957031 88.871094 C 34.546875 88.988281 34.1875 88.984375 33.777344 89.175781 L 33.710938 89.207031 C 32.398438 87.816406 31.128906 86.328125 29.890625 84.871094 C 29.242188 84.109375 28.113281 82.582031 27.332031 82.039062 C 27.316406 80.199219 27.410156 78.355469 27.417969 76.515625 Z M 37.121094 86.148438 C 37.640625 85.21875 38.289062 84.277344 38.695312 83.300781 C 39.035156 83.21875 39.359375 83.132812 39.664062 82.960938 C 40.84375 83.433594 41.988281 84.234375 43.105469 84.851562 C 46.386719 86.667969 49.695312 88.519531 52.863281 90.523438 C 52.300781 90.441406 51.71875 90.460938 51.152344 90.4375 C 50.320312 90.40625 49.488281 90.351562 48.65625 90.332031 C 47.367188 90.257812 46.066406 90.253906 44.773438 90.210938 C 41.882812 90.113281 38.988281 90.035156 36.09375 89.976562 L 35.953125 89.722656 C 35.8125 89.476562 35.683594 89.292969 35.480469 89.09375 C 36.089844 88.175781 36.582031 87.113281 37.121094 86.148438 Z M 36.144531 90.421875 C 36.804688 90.464844 37.472656 90.445312 38.128906 90.472656 C 41.207031 90.601562 44.285156 90.644531 47.363281 90.738281 C 48.863281 90.785156 50.445312 90.757812 51.929688 90.96875 C 52.132812 91 52.425781 91.023438 52.558594 91.199219 C 52.339844 91.558594 49.472656 92.597656 48.886719 92.839844 C 47.261719 93.574219 45.601562 94.234375 43.949219 94.90625 C 42.859375 95.351562 41.773438 95.839844 40.664062 96.226562 C 38.953125 94.621094 37.386719 92.886719 35.769531 91.1875 C 35.882812 90.929688 36.019531 90.675781 36.144531 90.421875 Z M 52.644531 91.835938 C 52.847656 91.875 53.375 92.425781 53.5625 92.582031 C 53.0625 93.671875 52.691406 94.863281 52.277344 95.992188 C 51.261719 98.75 50.324219 101.53125 49.292969 104.28125 C 48.953125 104.285156 48.621094 104.28125 48.285156 104.355469 C 47.300781 103.269531 46.300781 102.195312 45.292969 101.132812 C 43.851562 99.65625 42.464844 98.121094 41.003906 96.664062 Z M 52.738281 96.234375 C 53.195312 95.003906 53.695312 93.777344 54.042969 92.507812 C 54.144531 92.527344 54.257812 92.539062 54.355469 92.570312 C 54.363281 92.574219 54.484375 92.621094 54.503906 92.640625 C 54.835938 92.992188 55.644531 94.949219 55.90625 95.492188 L 59.058594 101.878906 C 58.359375 102.171875 57.625 102.40625 56.914062 102.675781 C 55.800781 103.097656 54.699219 103.539062 53.601562 103.992188 C 52.511719 104.390625 51.449219 104.855469 50.351562 105.234375 C 50.1875 104.972656 50.039062 104.71875 49.824219 104.496094 C 50.601562 101.695312 51.722656 98.960938 52.738281 96.234375 Z M 58.316406 99.296875 C 57.683594 98.023438 57.039062 96.753906 56.429688 95.46875 C 55.949219 94.460938 55.511719 93.429688 54.988281 92.445312 C 55.339844 92.136719 55.550781 91.90625 55.726562 91.460938 C 56.703125 91.980469 58.53125 92.578125 59.617188 92.996094 C 62.03125 93.929688 64.4375 94.898438 66.863281 95.800781 L 69.269531 96.71875 C 69.636719 96.863281 70.035156 96.964844 70.382812 97.15625 C 70.546875 97.242188 70.632812 97.316406 70.6875 97.492188 C 70.269531 97.902344 67.902344 98.660156 67.191406 98.925781 C 64.632812 99.8125 62.085938 100.777344 59.539062 101.710938 C 59.074219 100.957031 58.710938 100.09375 58.316406 99.296875 Z M 70.25 96.546875 C 67.324219 95.554688 64.457031 94.335938 61.570312 93.242188 L 57.3125 91.617188 C 56.78125 91.414062 56.183594 91.257812 55.671875 91.019531 C 55.796875 90.929688 56.0625 90.957031 56.21875 90.949219 C 56.859375 90.875 57.542969 90.910156 58.191406 90.90625 L 62.191406 90.917969 C 65.421875 90.921875 68.671875 90.828125 71.898438 90.914062 C 71.941406 92.570312 71.859375 94.234375 71.933594 95.890625 C 71.625 96.054688 71.355469 96.238281 71.085938 96.46875 L 70.90625 96.675781 C 70.710938 96.742188 70.441406 96.613281 70.246094 96.546875 Z M 71.855469 52.089844 C 70.496094 52.117188 69.136719 52.078125 67.777344 52.085938 L 57.820312 52.121094 C 57.40625 52.128906 56.980469 52.175781 56.59375 52.007812 C 56.5 51.894531 56.496094 51.902344 56.503906 51.757812 C 57.347656 51.175781 59.621094 50.449219 60.667969 50.058594 C 62.347656 49.433594 64.011719 48.761719 65.695312 48.140625 C 67.34375 47.53125 69.023438 46.976562 70.632812 46.269531 C 70.671875 46.300781 70.707031 46.328125 70.742188 46.359375 C 71.082031 46.660156 71.460938 46.847656 71.800781 47.132812 C 71.988281 47.921875 71.863281 51.074219 71.855469 52.089844 Z M 71.777344 18.054688 C 71.875 18.179688 71.875 18.421875 71.878906 18.574219 C 71.917969 20.863281 71.820312 23.15625 71.828125 25.445312 L 71.851562 43.597656 C 71.214844 43.75 70.933594 43.988281 70.578125 44.523438 C 67.992188 43.847656 65.453125 42.964844 62.894531 42.179688 L 60.066406 41.355469 C 61.40625 38.484375 62.855469 35.65625 64.257812 32.816406 L 71.589844 17.917969 C 71.652344 17.953125 71.734375 17.996094 71.777344 18.050781 Z M 70.964844 17.59375 L 71.011719 17.640625 C 71.050781 17.828125 70.921875 18.054688 70.84375 18.222656 C 70.136719 19.765625 69.316406 21.261719 68.574219 22.792969 L 61.765625 36.761719 C 61.054688 38.226562 60.207031 39.695312 59.625 41.214844 C 56.683594 40.328125 53.742188 39.421875 50.808594 38.496094 C 50.300781 38.308594 50.191406 37.707031 49.859375 37.324219 C 49.5625 36.984375 49.132812 36.945312 48.710938 36.921875 C 48.507812 36.128906 48.230469 35.355469 48.03125 34.558594 C 48.449219 34.394531 48.84375 34.238281 49.121094 33.863281 C 49.488281 33.367188 49.472656 32.597656 49.371094 32.019531 L 63.515625 22.5625 C 65.984375 20.898438 68.421875 19.136719 70.964844 17.59375 Z M 31.9375 38.570312 L 38.90625 34.53125 C 45.203125 30.855469 51.574219 27.304688 58.011719 23.878906 C 61.894531 21.777344 65.742188 19.628906 69.695312 17.660156 L 69.722656 17.683594 L 69.710938 17.761719 C 69.148438 18.207031 68.46875 18.539062 67.875 18.945312 C 66.171875 20.132812 64.457031 21.300781 62.734375 22.453125 L 49.046875 31.628906 C 48.574219 31.265625 48.125 31.007812 47.503906 31.066406 C 47.441406 31.074219 47.382812 31.082031 47.320312 31.09375 C 47.261719 31.101562 47.203125 31.117188 47.144531 31.136719 C 47.085938 31.152344 47.027344 31.171875 46.972656 31.195312 C 46.917969 31.21875 46.859375 31.246094 46.808594 31.277344 C 46.753906 31.304688 46.703125 31.335938 46.652344 31.371094 C 46.601562 31.40625 46.554688 31.445312 46.507812 31.484375 C 46.460938 31.523438 46.417969 31.566406 46.375 31.609375 C 46.335938 31.652344 46.292969 31.699219 46.257812 31.75 C 45.867188 32.269531 45.835938 32.855469 45.925781 33.472656 C 43.65625 34.464844 41.335938 35.351562 39.046875 36.304688 L 28.480469 40.785156 L 27.574219 41.125 C 28.957031 40.164062 30.476562 39.402344 31.9375 38.570312 Z M 26.855469 43.816406 C 27.148438 43.820312 27.5 44.207031 27.695312 44.40625 C 28.40625 45.132812 29.0625 45.929688 29.734375 46.695312 C 31.132812 48.257812 32.488281 49.855469 33.800781 51.492188 C 33.5 51.921875 33.359375 52.308594 33.445312 52.835938 C 33.488281 53.101562 33.542969 53.363281 33.597656 53.625 C 31.457031 55.820312 29.363281 58.066406 27.183594 60.222656 C 27.164062 59.722656 27.191406 57.335938 27.066406 57.042969 C 26.964844 54.0625 26.941406 51.070312 26.855469 48.089844 C 26.824219 46.988281 26.882812 45.859375 26.761719 44.765625 C 26.777344 44.464844 26.734375 44.09375 26.859375 43.816406 Z M 21.902344 71.308594 L 26.011719 71.308594 C 26.03125 71.417969 26.054688 71.523438 26.09375 71.625 C 26.269531 72.097656 26.582031 72.355469 27.023438 72.566406 C 26.976562 73.589844 26.988281 74.621094 26.976562 75.644531 C 25.507812 74.832031 23.980469 74.058594 22.484375 73.296875 C 21.8125 72.953125 21.132812 72.617188 20.449219 72.292969 C 20.015625 72.085938 19.523438 71.902344 19.117188 71.648438 C 19.023438 71.589844 18.980469 71.535156 18.933594 71.433594 L 18.96875 71.378906 C 19.945312 71.292969 20.925781 71.3125 21.902344 71.308594 Z M 19.046875 70.738281 C 19.242188 70.34375 25.824219 67.335938 26.726562 66.816406 L 26.789062 66.839844 C 27.039062 67.703125 26.929688 68.796875 27.007812 69.703125 C 26.460938 69.980469 26.269531 70.273438 25.980469 70.800781 L 19.359375 70.824219 C 19.230469 70.808594 19.148438 70.824219 19.046875 70.738281 Z M 26.773438 64.652344 C 26.785156 65.175781 26.832031 65.703125 26.796875 66.226562 C 24.234375 67.59375 21.566406 68.820312 18.949219 70.074219 L 18.808594 70.105469 L 18.761719 70.03125 C 19.023438 69.421875 25.617188 62.671875 26.585938 61.6875 L 26.632812 61.742188 C 26.761719 62.699219 26.753906 63.6875 26.773438 64.652344 Z M 18.765625 67.199219 C 19.976562 63.25 21.234375 59.324219 22.546875 55.410156 L 24.867188 48.214844 C 25.304688 46.863281 25.699219 45.472656 26.230469 44.152344 C 26.390625 44.320312 26.585938 59.390625 26.625 60.949219 C 23.835938 63.785156 21.074219 66.644531 18.335938 69.53125 C 18.277344 69.578125 18.230469 69.597656 18.160156 69.625 L 18.097656 69.558594 C 18.054688 68.914062 18.570312 67.835938 18.765625 67.199219 Z M 26.777344 84.027344 C 26.746094 85.929688 26.703125 87.832031 26.644531 89.734375 L 26.425781 100.207031 C 26.429688 100.3125 26.421875 100.398438 26.402344 100.503906 L 26.324219 100.5 C 26.1875 100.316406 26.113281 100.117188 26.046875 99.902344 C 25.496094 98.148438 25.066406 96.351562 24.539062 94.589844 L 19.753906 78.707031 C 19.398438 77.511719 17.996094 73.613281 17.992188 72.667969 C 19.191406 73.347656 23.609375 78.613281 24.878906 80.027344 C 25.507812 80.726562 26.195312 81.375 26.820312 82.078125 C 26.839844 82.722656 26.785156 83.378906 26.777344 84.027344 Z M 26.796875 81.363281 C 24.96875 79.417969 23.230469 77.390625 21.441406 75.40625 C 20.574219 74.449219 19.644531 73.542969 18.785156 72.582031 C 18.710938 72.496094 18.65625 72.429688 18.621094 72.316406 C 18.585938 72.214844 18.640625 72.167969 18.683594 72.074219 C 19.722656 72.332031 20.789062 73.023438 21.742188 73.511719 C 23.484375 74.382812 25.214844 75.28125 26.925781 76.203125 C 26.949219 77.921875 26.808594 79.644531 26.867188 81.363281 Z M 27.121094 100.835938 L 27.015625 100.753906 C 26.929688 100.554688 26.90625 100.363281 26.90625 100.144531 C 26.902344 98.761719 26.980469 97.375 27.019531 95.992188 L 27.160156 89.699219 L 27.226562 85.367188 C 27.242188 84.523438 27.191406 83.597656 27.335938 82.761719 C 27.875 83.183594 33.207031 89.242188 33.273438 89.5 C 33.425781 90.074219 32.96875 90.410156 33.453125 91.304688 C 33.464844 91.324219 33.472656 91.34375 33.484375 91.363281 C 32.914062 92.09375 32.445312 92.949219 31.949219 93.734375 C 31.191406 94.925781 30.410156 96.101562 29.636719 97.28125 C 29.238281 97.902344 27.628906 100.601562 27.121094 100.835938 Z M 27.625 101.117188 C 28.800781 99.527344 29.855469 97.839844 30.933594 96.179688 C 31.929688 94.644531 32.964844 93.125 33.90625 91.554688 C 33.984375 91.601562 34.058594 91.632812 34.144531 91.660156 C 34.644531 91.816406 34.957031 91.765625 35.414062 91.523438 C 37.046875 93.089844 38.554688 94.824219 40.113281 96.46875 C 37.460938 97.523438 34.824219 98.621094 32.203125 99.75 C 30.800781 100.28125 29.441406 100.949219 28.054688 101.511719 Z M 28.164062 102.347656 C 28.125 102.226562 28.125 102.21875 28.160156 102.09375 C 29.304688 101.390625 30.714844 100.941406 31.957031 100.417969 L 40.363281 96.902344 C 40.945312 96.988281 46.953125 103.855469 47.9375 104.695312 L 47.671875 105.222656 C 46.285156 105.203125 44.867188 104.9375 43.496094 104.753906 L 37.121094 103.910156 C 35.398438 103.71875 33.6875 103.425781 31.976562 103.167969 C 30.996094 103.023438 29.953125 102.945312 28.992188 102.710938 C 28.683594 102.636719 28.417969 102.539062 28.164062 102.347656 Z M 37.417969 104.441406 L 44.101562 105.320312 C 45.246094 105.464844 46.429688 105.53125 47.5625 105.746094 C 47.726562 106.277344 47.976562 106.625 48.429688 106.949219 C 48.183594 107.773438 47.917969 108.589844 47.636719 109.402344 C 47.472656 109.554688 46.832031 109.496094 46.207031 110.1875 C 43.234375 109.183594 40.335938 107.882812 37.429688 106.707031 C 34.816406 105.652344 32.117188 104.710938 29.605469 103.433594 C 32.171875 103.601562 34.84375 104.121094 37.417969 104.441406 Z M 64.304688 123.613281 L 57.75 120.128906 C 52.566406 117.339844 47.414062 114.5 42.289062 111.601562 C 39.65625 110.140625 37.039062 108.65625 34.433594 107.148438 C 32.84375 106.226562 31.195312 105.3125 29.679688 104.273438 C 30.5625 104.328125 32.910156 105.5 33.859375 105.890625 L 37.734375 107.449219 C 40.472656 108.535156 43.21875 109.601562 45.972656 110.640625 C 45.941406 111.246094 45.988281 111.777344 46.382812 112.269531 C 46.417969 112.3125 46.453125 112.355469 46.492188 112.394531 C 46.535156 112.433594 46.574219 112.472656 46.617188 112.511719 C 46.660156 112.546875 46.707031 112.582031 46.753906 112.613281 C 46.800781 112.644531 46.847656 112.671875 46.898438 112.699219 C 46.949219 112.726562 47 112.75 47.050781 112.773438 C 47.101562 112.792969 47.15625 112.8125 47.210938 112.828125 C 47.261719 112.84375 47.316406 112.859375 47.375 112.867188 C 47.429688 112.878906 47.484375 112.886719 47.542969 112.890625 C 48.179688 112.941406 48.65625 112.621094 49.109375 112.222656 C 55.757812 116.722656 62.359375 121.28125 68.921875 125.902344 C 69.113281 126.050781 69.292969 126.207031 69.472656 126.363281 C 67.777344 125.398438 66.035156 124.519531 64.308594 123.613281 Z M 70.703125 126.46875 C 68.6875 124.996094 66.601562 123.601562 64.542969 122.191406 C 62.0625 120.542969 59.636719 118.808594 57.167969 117.140625 C 54.546875 115.371094 51.878906 113.667969 49.355469 111.765625 C 49.363281 111.4375 49.398438 111.074219 49.320312 110.753906 C 49.164062 110.105469 48.753906 109.8125 48.21875 109.484375 C 48.347656 108.722656 48.609375 107.90625 48.882812 107.183594 C 49.085938 107.125 49.285156 107.070312 49.476562 106.988281 C 49.992188 106.773438 50.066406 106.535156 50.269531 106.058594 C 50.34375 105.890625 50.460938 105.824219 50.613281 105.738281 C 51.414062 105.285156 52.402344 104.984375 53.261719 104.640625 L 59.1875 102.3125 L 59.277344 102.328125 C 59.472656 102.605469 59.574219 102.933594 59.742188 103.226562 C 60.761719 105.019531 61.625 106.933594 62.554688 108.777344 L 71.175781 126.132812 Z M 71.941406 125.21875 C 71.929688 125.492188 71.90625 125.757812 71.765625 126 C 71.578125 125.917969 68.53125 119.769531 68.089844 118.894531 L 62.210938 107.121094 L 60.605469 103.882812 C 60.332031 103.332031 60.078125 102.664062 59.707031 102.179688 C 61.019531 101.738281 62.308594 101.207031 63.609375 100.726562 C 66.023438 99.859375 68.433594 98.96875 70.832031 98.058594 C 70.917969 98.078125 71.570312 98.683594 71.902344 98.820312 C 71.9375 105.027344 71.9375 111.234375 71.90625 117.445312 L 71.90625 122.332031 C 71.917969 123.289062 71.980469 124.261719 71.941406 125.21875 Z M 117.621094 56.152344 L 117.738281 49.089844 C 117.753906 47.390625 117.683594 45.679688 117.789062 43.980469 C 117.929688 44.128906 118.007812 44.304688 118.078125 44.496094 C 118.675781 46.105469 119.136719 47.796875 119.683594 49.425781 C 121.238281 54.089844 122.753906 58.765625 124.230469 63.457031 C 124.667969 64.835938 125.09375 66.222656 125.511719 67.609375 C 125.699219 68.242188 125.988281 68.964844 126.046875 69.617188 L 125.785156 69.660156 C 125.03125 69.078125 124.449219 68.273438 123.804688 67.578125 C 122.589844 66.269531 121.347656 64.988281 120.140625 63.671875 C 119.320312 62.78125 118.515625 61.75 117.59375 60.964844 C 117.644531 59.359375 117.601562 57.753906 117.621094 56.152344 Z M 117.628906 61.699219 C 118.351562 62.257812 119.441406 63.679688 120.125 64.421875 C 121.734375 66.179688 123.417969 67.878906 124.988281 69.671875 C 125.105469 69.804688 125.191406 69.914062 125.253906 70.082031 L 125.1875 70.175781 C 123.554688 69.355469 121.894531 68.601562 120.246094 67.808594 C 119.324219 67.363281 118.382812 66.816406 117.429688 66.441406 C 117.472656 64.859375 117.539062 63.277344 117.628906 61.699219 Z M 117.4375 67.046875 C 119.230469 67.75 121 68.707031 122.726562 69.5625 C 123.410156 69.902344 124.21875 70.171875 124.839844 70.625 C 124.890625 70.664062 124.875 70.636719 124.886719 70.710938 L 124.828125 70.761719 L 118.582031 70.785156 C 118.339844 70.332031 118.046875 69.890625 117.59375 69.617188 C 117.515625 69.570312 117.441406 69.519531 117.363281 69.46875 C 117.171875 68.996094 117.398438 67.609375 117.4375 67.042969 Z M 116.515625 43.722656 C 116.734375 43.855469 116.976562 43.960938 117.203125 44.074219 C 117.253906 49.476562 117.15625 54.871094 117.128906 60.273438 C 116.125 59.144531 115.035156 58.09375 113.992188 57.003906 C 112.839844 55.714844 111.621094 54.488281 110.480469 53.191406 C 110.484375 53.179688 110.492188 53.167969 110.5 53.152344 C 110.648438 52.921875 110.691406 52.714844 110.710938 52.441406 C 110.742188 52.003906 110.601562 51.683594 110.3125 51.363281 C 111.4375 50.105469 112.488281 48.785156 113.550781 47.472656 C 114.550781 46.234375 115.566406 45 116.515625 43.722656 Z M 95.765625 104.285156 C 95.464844 104.195312 95.195312 104.175781 94.882812 104.171875 C 93.378906 100.308594 92.117188 96.316406 90.445312 92.523438 L 91.179688 91.648438 C 91.808594 91.957031 92.5 92.128906 93.136719 92.417969 C 96.410156 93.890625 99.710938 95.300781 103.035156 96.652344 C 102.621094 97.160156 102.136719 97.628906 101.6875 98.105469 C 100.820312 99.035156 99.941406 99.957031 99.054688 100.871094 C 97.941406 101.988281 96.878906 103.164062 95.765625 104.285156 Z M 96.566406 105.773438 C 98.28125 105.464844 100.0625 105.355469 101.792969 105.128906 L 114.640625 103.390625 L 114.671875 103.390625 L 114.675781 103.449219 C 114.078125 103.84375 113.335938 104.054688 112.675781 104.328125 C 111.121094 104.972656 109.574219 105.617188 108.007812 106.234375 C 104.605469 107.566406 101.238281 108.976562 97.820312 110.269531 C 97.445312 109.792969 97.101562 109.597656 96.527344 109.4375 L 96.425781 109.390625 C 96.175781 108.601562 95.976562 107.796875 95.765625 106.996094 C 96.167969 106.664062 96.390625 106.257812 96.5625 105.773438 Z M 73.113281 76.578125 C 73.8125 75.519531 74.683594 74.507812 75.46875 73.511719 C 76.136719 72.664062 76.789062 71.738281 77.53125 70.957031 C 77.820312 71.097656 78.171875 71.160156 78.484375 71.242188 C 78.582031 71.390625 78.675781 71.542969 78.769531 71.695312 C 79.710938 73.238281 80.546875 74.847656 81.421875 76.429688 L 84.71875 82.3125 C 85.667969 83.992188 86.605469 85.683594 87.527344 87.378906 C 87.816406 87.902344 88.164062 88.414062 88.429688 88.945312 C 88.539062 89.167969 88.695312 89.457031 88.636719 89.703125 L 88.457031 89.636719 L 88.542969 89.640625 C 88.527344 89.636719 88.507812 89.632812 88.492188 89.625 L 88.421875 89.605469 C 87.6875 89.363281 86.667969 88.40625 86.03125 87.90625 C 81.898438 84.839844 77.898438 81.597656 73.726562 78.578125 C 73.742188 78.328125 73.761719 78.074219 73.753906 77.824219 C 73.734375 77.292969 73.5 76.929688 73.113281 76.578125 Z M 73.699219 60.519531 C 77.554688 58.691406 81.363281 56.746094 85.207031 54.878906 C 86.269531 54.363281 87.320312 53.820312 88.398438 53.328125 C 88.453125 53.34375 88.414062 53.328125 88.492188 53.390625 C 88.394531 53.96875 79.609375 67.113281 78.5 68.792969 L 77.652344 68.78125 C 77.105469 67.992188 76.566406 67.195312 76.035156 66.390625 C 75.441406 65.480469 74.875 64.558594 74.289062 63.644531 C 73.984375 63.167969 73.695312 62.648438 73.328125 62.21875 L 73.382812 62.117188 C 73.695312 61.554688 73.757812 61.15625 73.699219 60.519531 Z M 72.347656 47.085938 C 72.820312 46.847656 73.121094 46.644531 73.449219 46.222656 C 75.300781 47.027344 77.246094 47.652344 79.140625 48.347656 L 86.464844 51.097656 C 86.886719 51.253906 87.761719 51.484375 87.957031 51.90625 L 87.886719 52.011719 C 87.65625 52.128906 87.382812 52.097656 87.128906 52.097656 C 82.207031 52.128906 77.28125 52.121094 72.359375 52.074219 C 72.320312 50.414062 72.378906 48.75 72.347656 47.085938 Z M 80.820312 48.449219 C 78.429688 47.566406 75.988281 46.773438 73.628906 45.8125 L 73.683594 45.074219 C 74.707031 44.707031 75.777344 44.425781 76.820312 44.109375 L 84.289062 41.898438 C 84.722656 42.265625 88.121094 49.699219 88.597656 50.800781 C 88.476562 50.921875 88.371094 51.0625 88.265625 51.195312 C 85.753906 50.367188 83.289062 49.390625 80.820312 48.449219 Z M 103.886719 82.378906 C 102.855469 83.0625 101.71875 83.644531 100.644531 84.261719 C 98.4375 85.527344 96.246094 86.808594 94.0625 88.109375 C 93.144531 88.640625 92.179688 89.277344 91.199219 89.671875 C 91.035156 89.738281 90.882812 89.816406 90.710938 89.742188 C 90.640625 89.546875 90.6875 89.390625 90.753906 89.199219 C 90.90625 88.753906 91.148438 88.335938 91.351562 87.914062 C 91.6875 87.210938 92.011719 86.503906 92.324219 85.792969 C 93.605469 82.824219 94.90625 79.871094 96.226562 76.921875 C 96.847656 75.542969 97.539062 74.195312 98.121094 72.800781 L 98.984375 72.726562 C 99.097656 72.699219 99.101562 72.71875 99.207031 72.757812 C 100.015625 73.789062 103.828125 80.183594 104.152344 81.230469 C 103.882812 81.578125 103.878906 81.960938 103.886719 82.378906 Z M 97.714844 72.546875 C 97.078125 74.199219 96.234375 75.796875 95.488281 77.402344 C 94.492188 79.546875 93.558594 81.726562 92.628906 83.898438 L 91.125 87.304688 C 90.851562 87.925781 90.601562 88.804688 90.1875 89.339844 C 90.0625 89.359375 90 89.363281 89.878906 89.316406 C 89.671875 88.878906 89.71875 66.394531 89.707031 63.804688 C 89.691406 60.460938 89.5 57.101562 89.667969 53.757812 C 89.847656 53.835938 89.917969 53.996094 90.007812 54.160156 C 90.289062 54.6875 90.511719 55.246094 90.78125 55.78125 C 91.890625 58.039062 92.976562 60.304688 94.042969 62.582031 C 95.207031 65.03125 96.496094 67.441406 97.570312 69.925781 C 97.316406 70.285156 97.085938 70.675781 97.0625 71.125 C 97.035156 71.699219 97.359375 72.136719 97.714844 72.546875 Z M 99.667969 72.421875 C 99.679688 72.398438 99.695312 72.378906 99.710938 72.355469 C 99.914062 72.054688 100.011719 71.746094 100.125 71.40625 C 100.363281 71.21875 101.75 71.300781 102.128906 71.289062 C 103.3125 71.214844 104.519531 71.269531 105.703125 71.277344 L 111.644531 71.308594 C 112.695312 71.3125 113.941406 71.414062 114.976562 71.277344 C 115.03125 71.445312 115.089844 71.621094 115.167969 71.78125 C 115.496094 72.449219 116.058594 72.675781 116.722656 72.894531 C 116.851562 73.890625 116.808594 74.933594 116.84375 75.9375 C 115.121094 76.773438 113.425781 77.671875 111.703125 78.507812 C 109.769531 79.480469 107.824219 80.421875 105.867188 81.34375 C 105.464844 81.050781 105.125 80.957031 104.65625 80.847656 C 102.929688 78.074219 101.269531 75.265625 99.667969 72.421875 Z M 99.28125 69.851562 C 98.835938 69.714844 98.46875 69.683594 98.003906 69.734375 C 97.410156 68.378906 96.734375 67.074219 96.09375 65.742188 L 92.050781 57.324219 C 91.640625 56.453125 90.515625 54.390625 90.308594 53.589844 C 90.269531 53.433594 90.429688 53.253906 90.511719 53.132812 C 91.457031 53.476562 92.515625 54.203125 93.429688 54.679688 C 95.453125 55.753906 97.46875 56.839844 99.480469 57.9375 C 100.796875 58.667969 102.085938 59.429688 103.421875 60.125 C 103.351562 60.640625 103.390625 60.964844 103.710938 61.390625 C 102.753906 63.277344 101.78125 65.160156 100.792969 67.03125 C 100.289062 67.96875 99.832031 68.9375 99.285156 69.851562 Z M 103.671875 59.695312 C 103.65625 59.703125 103.644531 59.714844 103.628906 59.722656 C 101.5 58.609375 99.449219 57.347656 97.34375 56.195312 L 93.238281 53.96875 C 92.511719 53.582031 91.414062 53.136719 90.820312 52.601562 C 91.363281 52.671875 91.9375 52.625 92.484375 52.617188 C 93.296875 52.597656 94.105469 52.597656 94.914062 52.609375 L 107.769531 52.640625 C 107.875 52.921875 107.996094 53.160156 108.152344 53.417969 C 107.3125 54.75 106.617188 56.167969 105.886719 57.5625 C 105.625 58.066406 105.371094 59.003906 104.945312 59.363281 C 104.511719 59.339844 104.039062 59.460938 103.671875 59.695312 Z M 90.644531 52.050781 C 91.921875 51.390625 93.457031 50.988281 94.816406 50.515625 L 99.59375 48.816406 C 101.015625 48.320312 102.441406 47.863281 103.84375 47.300781 C 104.136719 47.476562 104.4375 47.847656 104.6875 48.089844 C 105.847656 49.226562 106.953125 50.410156 108.070312 51.589844 C 107.929688 51.765625 107.832031 51.921875 107.753906 52.132812 C 106.238281 52.230469 104.6875 52.167969 103.167969 52.171875 L 94.960938 52.171875 C 93.523438 52.171875 92.074219 52.214844 90.644531 52.050781 Z M 106.730469 49.515625 C 105.941406 48.714844 105.136719 47.933594 104.3125 47.171875 C 105.480469 46.664062 106.707031 46.277344 107.902344 45.832031 L 115.589844 42.960938 C 115.648438 42.949219 115.730469 42.953125 115.789062 42.953125 C 115.929688 43.035156 115.984375 43.050781 116.070312 43.195312 C 116.003906 43.867188 110.832031 49.917969 110.011719 51.054688 C 109.402344 50.921875 108.945312 50.96875 108.355469 51.148438 C 107.804688 50.617188 107.234375 50.097656 106.730469 49.519531 Z M 112.375 43.675781 C 109.535156 44.664062 106.761719 45.851562 103.902344 46.773438 C 102.445312 45.191406 100.894531 43.671875 99.371094 42.152344 C 98.851562 41.632812 96.601562 39.601562 96.375 39.101562 L 96.546875 38.769531 C 96.640625 38.777344 96.734375 38.785156 96.828125 38.796875 C 100.429688 39.285156 104.019531 40.042969 107.597656 40.675781 L 112.585938 41.519531 C 113.339844 41.640625 114.105469 41.726562 114.851562 41.875 C 115.089844 41.921875 115.632812 42 115.777344 42.191406 C 115.609375 42.558594 112.890625 43.480469 112.375 43.675781 Z M 99.359375 42.84375 C 100.710938 44.21875 102.105469 45.550781 103.449219 46.933594 C 101.109375 47.808594 98.746094 48.636719 96.390625 49.480469 C 95.226562 49.902344 94.054688 50.300781 92.878906 50.683594 C 92.179688 50.910156 91.441406 51.101562 90.769531 51.394531 L 90.394531 50.953125 C 90.960938 49.035156 91.808594 47.144531 92.550781 45.28125 C 93.320312 43.347656 94.039062 41.34375 94.917969 39.453125 C 95.179688 39.449219 95.445312 39.429688 95.707031 39.417969 L 95.738281 39.40625 L 95.753906 39.457031 L 95.789062 39.382812 C 95.875 39.386719 95.941406 39.4375 96.003906 39.492188 C 97.15625 40.484375 98.289062 41.753906 99.359375 42.84375 Z M 93.789062 40.925781 C 92.964844 42.972656 92.152344 45.03125 91.355469 47.089844 C 90.878906 48.296875 90.28125 49.523438 89.933594 50.769531 C 89.671875 50.722656 89.40625 50.6875 89.140625 50.648438 L 87.902344 48.128906 C 86.832031 46.046875 85.726562 43.914062 84.792969 41.769531 C 85.519531 41.492188 86.289062 41.289062 87.03125 41.0625 C 88.460938 40.621094 89.894531 40.199219 91.332031 39.792969 C 92.285156 39.527344 93.292969 39.292969 94.210938 38.929688 C 94.296875 38.984375 94.375 39.023438 94.429688 39.113281 C 94.546875 39.304688 93.914062 40.625 93.789062 40.925781 Z M 89.328125 89.398438 C 89.332031 89.414062 89.332031 89.433594 89.335938 89.449219 L 89.253906 89.4375 C 87.960938 87.328125 86.808594 85.089844 85.621094 82.917969 C 85.210938 82.039062 84.648438 81.191406 84.171875 80.339844 C 83.523438 79.144531 82.859375 77.953125 82.1875 76.765625 C 81.046875 74.78125 79.84375 72.789062 78.871094 70.71875 C 79.074219 70.472656 79.15625 70.214844 79.242188 69.910156 C 79.15625 69.609375 79.070312 69.382812 78.914062 69.113281 L 85.542969 58.957031 C 86.683594 57.191406 87.78125 55.378906 88.988281 53.660156 C 89.097656 53.761719 89.101562 53.933594 89.117188 54.078125 C 89.242188 55.261719 89.179688 56.492188 89.183594 57.6875 L 89.222656 63.808594 L 89.355469 84.914062 C 89.363281 85.808594 89.367188 86.703125 89.359375 87.601562 C 89.351562 88.191406 89.273438 88.8125 89.328125 89.398438 Z M 89.039062 92.492188 C 87.582031 95.597656 85.996094 98.65625 84.421875 101.699219 C 82.007812 100.730469 79.519531 99.894531 77.074219 99.015625 C 75.875 98.632812 74.691406 98.179688 73.503906 97.761719 L 73.546875 97.015625 C 74.828125 96.488281 76.191406 96.109375 77.5 95.648438 C 81.109375 94.378906 84.734375 93.164062 88.289062 91.746094 C 88.460938 91.808594 88.882812 92.339844 89.039062 92.492188 Z M 85.996094 99.648438 C 86.625 98.34375 87.324219 97.0625 87.992188 95.773438 C 88.550781 94.6875 89.078125 93.570312 89.691406 92.515625 C 89.707031 92.527344 89.722656 92.539062 89.738281 92.546875 C 89.988281 92.699219 90.09375 92.960938 90.210938 93.214844 C 90.761719 94.390625 91.15625 95.691406 91.617188 96.90625 C 92.558594 99.324219 93.476562 101.75 94.375 104.1875 C 94.050781 104.449219 93.871094 104.710938 93.691406 105.085938 L 90.828125 104.039062 C 88.886719 103.300781 86.898438 102.652344 84.972656 101.878906 C 85.347656 101.15625 85.636719 100.382812 85.996094 99.648438 Z M 96.949219 93.566406 C 95.707031 93.007812 94.417969 92.535156 93.164062 92.007812 C 92.558594 91.75 91.921875 91.507812 91.363281 91.15625 L 91.4375 91.078125 L 91.320312 91.117188 L 91.328125 91.054688 C 91.925781 90.738281 103.722656 90.578125 105.472656 90.476562 C 106.277344 90.394531 107.144531 90.449219 107.953125 90.449219 C 108.0625 90.628906 108.15625 90.816406 108.253906 91 C 106.617188 92.726562 105.089844 94.542969 103.421875 96.25 C 101.253906 95.394531 99.101562 94.460938 96.949219 93.566406 Z M 107.84375 89.898438 L 95.230469 90.285156 C 93.890625 90.402344 92.464844 90.484375 91.121094 90.40625 C 92.382812 89.449219 94.199219 88.609375 95.605469 87.796875 C 98.460938 86.160156 101.28125 84.460938 104.15625 82.855469 C 104.558594 82.996094 104.953125 83.125 105.367188 83.226562 C 105.867188 84.082031 106.304688 84.992188 106.785156 85.859375 C 107.316406 86.828125 107.898438 87.765625 108.433594 88.726562 C 108.15625 89.101562 107.984375 89.460938 107.84375 89.898438 Z M 107.953125 86.886719 C 107.214844 85.582031 106.472656 84.277344 105.792969 82.9375 C 105.980469 82.566406 106.042969 82.179688 106.113281 81.777344 C 109.71875 80.175781 113.21875 78.304688 116.753906 76.558594 L 116.832031 76.601562 C 116.898438 77.117188 116.878906 77.675781 116.886719 78.199219 C 116.914062 79.429688 116.921875 80.65625 116.914062 81.886719 C 116.394531 82.390625 115.917969 82.957031 115.410156 83.472656 L 110.335938 88.699219 C 109.78125 88.414062 109.492188 88.351562 108.871094 88.519531 Z M 116.867188 69.433594 C 116.585938 69.496094 116.300781 69.550781 116.039062 69.671875 C 115.523438 69.910156 115.234375 70.316406 115.035156 70.832031 C 113.773438 70.820312 112.511719 70.816406 111.25 70.820312 C 107.554688 70.71875 103.855469 70.824219 100.160156 70.847656 C 100.046875 70.578125 99.917969 70.316406 99.796875 70.050781 C 100.753906 68.125 101.785156 66.21875 102.789062 64.316406 C 103.253906 63.4375 103.667969 62.523438 104.164062 61.667969 C 104.59375 61.636719 104.964844 61.550781 105.367188 61.410156 C 105.914062 61.386719 115.488281 66.046875 116.925781 66.710938 Z M 113.730469 64.6875 C 112.898438 64.285156 105.890625 61.078125 105.789062 60.929688 C 105.699219 60.792969 105.6875 60.367188 105.632812 60.1875 C 105.578125 60.007812 105.472656 59.835938 105.390625 59.667969 C 105.496094 59.269531 105.734375 58.882812 105.917969 58.511719 C 106.722656 56.894531 107.738281 55.378906 108.515625 53.753906 C 109.128906 53.867188 109.519531 53.859375 110.109375 53.660156 C 110.980469 54.363281 111.769531 55.324219 112.542969 56.140625 L 117.136719 61.078125 C 117.160156 62.773438 117.023438 64.484375 116.964844 66.179688 C 115.867188 65.765625 114.792969 65.191406 113.730469 64.6875 Z M 113.949219 41.269531 C 110.410156 40.648438 106.871094 40.046875 103.324219 39.464844 C 101.074219 39.078125 98.855469 38.585938 96.582031 38.335938 C 96.5625 38.167969 96.542969 37.992188 96.5 37.828125 C 96.386719 37.398438 96.117188 37.164062 95.746094 36.949219 C 95.988281 36.15625 96.246094 35.363281 96.460938 34.566406 C 97.234375 34.582031 97.609375 34.363281 98.15625 33.84375 C 98.667969 33.949219 99.21875 34.261719 99.703125 34.46875 C 100.769531 34.921875 101.832031 35.382812 102.890625 35.851562 L 110.234375 39.050781 C 112.195312 39.925781 114.171875 40.90625 116.1875 41.640625 C 115.4375 41.550781 114.691406 41.40625 113.949219 41.269531 Z M 80.609375 20.929688 C 89.238281 25.355469 97.734375 30.027344 106.089844 34.945312 C 108 36.058594 109.898438 37.1875 111.789062 38.335938 C 113.113281 39.132812 114.488281 39.875 115.691406 40.851562 L 114.855469 40.503906 C 114.261719 40.21875 113.621094 39.996094 113.015625 39.738281 L 108.636719 37.851562 C 105.214844 36.351562 101.847656 34.769531 98.367188 33.402344 C 98.402344 33.273438 98.429688 33.144531 98.433594 33.007812 C 98.460938 32.433594 98.335938 31.867188 97.929688 31.441406 C 97.890625 31.402344 97.851562 31.363281 97.808594 31.324219 C 97.765625 31.289062 97.71875 31.253906 97.675781 31.21875 C 97.628906 31.1875 97.578125 31.15625 97.53125 31.128906 C 97.480469 31.101562 97.429688 31.074219 97.378906 31.050781 C 97.328125 31.027344 97.273438 31.007812 97.21875 30.992188 C 97.167969 30.972656 97.113281 30.957031 97.054688 30.945312 C 97 30.933594 96.945312 30.921875 96.886719 30.917969 C 96.832031 30.910156 96.777344 30.90625 96.71875 30.90625 C 96.054688 30.894531 95.570312 31.246094 95.121094 31.6875 C 93.941406 30.933594 92.820312 30.058594 91.664062 29.261719 L 84.296875 24.261719 L 77.582031 19.722656 C 76.804688 19.199219 75.972656 18.738281 75.222656 18.183594 C 76.207031 18.378906 79.453125 20.320312 80.609375 20.929688 Z M 73.851562 17.871094 C 74.84375 18.464844 75.789062 19.167969 76.753906 19.808594 C 79.191406 21.414062 81.613281 23.042969 84.019531 24.695312 C 86.683594 26.488281 89.335938 28.296875 91.976562 30.125 C 92.933594 30.789062 93.9375 31.40625 94.875 32.097656 C 94.796875 32.535156 94.746094 33.023438 94.898438 33.449219 C 95.097656 33.996094 95.539062 34.257812 96.046875 34.476562 C 95.8125 35.253906 95.636719 36.199219 95.214844 36.894531 C 95.097656 36.941406 94.984375 36.988281 94.871094 37.039062 C 94.226562 37.335938 94.222656 37.835938 94 38.429688 C 93.875 38.566406 93.730469 38.582031 93.558594 38.625 C 91.480469 39.285156 89.375 39.871094 87.285156 40.496094 C 86.402344 40.761719 85.457031 40.980469 84.605469 41.324219 C 82.972656 38.15625 81.523438 34.875 79.949219 31.675781 L 76.019531 23.691406 C 75.53125 22.71875 73.074219 18.210938 72.988281 17.535156 C 73.324219 17.546875 73.570312 17.707031 73.851562 17.871094 Z M 72.390625 17.90625 C 72.632812 18.039062 72.804688 18.378906 72.933594 18.621094 C 73.347656 19.382812 73.6875 20.199219 74.070312 20.980469 L 76.6875 26.285156 L 80.140625 33.300781 C 81.480469 35.996094 82.859375 38.699219 84.101562 41.441406 C 83.257812 41.722656 82.402344 41.976562 81.539062 42.195312 C 78.898438 43.023438 76.242188 43.796875 73.570312 44.519531 C 73.207031 44.039062 72.894531 43.820312 72.351562 43.574219 C 72.304688 41.546875 72.339844 39.515625 72.335938 37.484375 C 72.304688 33.636719 72.3125 29.785156 72.351562 25.9375 L 72.355469 20.789062 C 72.355469 19.839844 72.304688 18.851562 72.390625 17.90625 Z M 72.359375 52.609375 C 75.320312 52.535156 78.289062 52.609375 81.25 52.617188 C 83.203125 52.625 85.167969 52.550781 87.117188 52.617188 C 87.386719 52.625 87.78125 52.617188 88.023438 52.734375 C 87.78125 53.15625 83.953125 54.960938 83.210938 55.332031 C 79.972656 56.863281 76.75 58.433594 73.546875 60.046875 C 73.210938 59.625 72.867188 59.332031 72.339844 59.179688 C 72.300781 56.988281 72.304688 54.800781 72.359375 52.609375 Z M 72.359375 71.554688 L 72.371094 62.746094 L 72.898438 62.558594 C 73.046875 62.601562 76.863281 68.503906 77.226562 69.09375 C 77.113281 69.253906 77.019531 69.414062 76.957031 69.601562 C 76.828125 70 76.933594 70.300781 77.113281 70.660156 C 76.226562 71.644531 75.460938 72.785156 74.625 73.816406 C 74.152344 74.417969 73.242188 75.785156 72.640625 76.144531 L 72.503906 76.101562 C 72.421875 75.988281 72.378906 75.898438 72.363281 75.761719 C 72.230469 74.535156 72.355469 72.820312 72.359375 71.554688 Z M 72.351562 79.679688 C 72.761719 79.484375 73.109375 79.28125 73.449219 78.976562 C 75.75 80.457031 77.894531 82.292969 80.074219 83.949219 L 83.917969 86.910156 C 85.417969 88.042969 86.953125 89.144531 88.351562 90.40625 C 88.007812 90.433594 87.660156 90.421875 87.316406 90.421875 C 86.214844 90.351562 85.089844 90.425781 83.984375 90.410156 C 80.113281 90.347656 76.246094 90.433594 72.375 90.441406 C 72.285156 86.863281 72.324219 83.257812 72.351562 79.679688 Z M 72.371094 90.910156 C 74.226562 90.832031 76.109375 90.863281 77.96875 90.863281 C 78.847656 90.863281 79.757812 90.90625 80.632812 90.828125 C 80.6875 90.824219 80.746094 90.816406 80.804688 90.816406 C 81.78125 90.800781 87.855469 90.78125 88.144531 91.0625 L 88.117188 91.175781 C 87.402344 91.765625 79.710938 94.355469 78.316406 94.816406 C 76.683594 95.425781 75.003906 95.914062 73.375 96.546875 C 73.085938 96.253906 72.726562 96.078125 72.367188 95.890625 C 72.332031 94.234375 72.304688 92.5625 72.371094 90.910156 Z M 72.40625 109.214844 C 72.402344 105.753906 72.300781 102.292969 72.382812 98.832031 C 72.765625 98.660156 73.050781 98.511719 73.320312 98.179688 C 74.191406 98.5625 75.105469 98.863281 76 99.1875 C 78.71875 100.171875 81.527344 101.03125 84.199219 102.132812 C 83.929688 102.917969 83.523438 103.675781 83.15625 104.421875 L 81.535156 107.683594 L 76.136719 118.882812 C 74.953125 121.359375 73.734375 123.8125 72.476562 126.25 C 72.414062 120.574219 72.390625 114.894531 72.40625 109.214844 Z M 73.347656 126.539062 L 73.265625 126.476562 C 73.195312 126.238281 73.28125 126.015625 73.367188 125.796875 C 73.65625 125.066406 74.097656 124.390625 74.425781 123.675781 C 75.53125 121.230469 76.6875 118.804688 77.894531 116.40625 L 84.730469 102.335938 C 86.09375 102.808594 87.429688 103.355469 88.78125 103.855469 C 90.371094 104.445312 91.972656 105 93.566406 105.578125 C 93.65625 105.984375 93.792969 106.378906 94.09375 106.679688 C 94.421875 107.007812 94.832031 107.117188 95.28125 107.125 C 95.476562 107.917969 95.730469 108.699219 95.949219 109.488281 C 95.664062 109.621094 95.386719 109.769531 95.167969 110 C 94.730469 110.464844 94.652344 111.113281 94.671875 111.722656 C 93.867188 112.457031 92.882812 113.042969 91.980469 113.660156 L 88.230469 116.253906 C 85.417969 118.164062 82.667969 120.164062 79.859375 122.082031 L 75.152344 125.292969 C 74.589844 125.679688 73.960938 126.277344 73.347656 126.539062 Z M 112 105.835938 C 104.898438 109.972656 97.734375 113.988281 90.503906 117.890625 L 80.898438 123.007812 L 76.109375 125.648438 C 75.550781 125.953125 74.984375 126.347656 74.40625 126.601562 C 74.476562 126.460938 74.566406 126.40625 74.691406 126.3125 C 76.476562 124.976562 78.347656 123.761719 80.183594 122.496094 L 89.574219 115.964844 C 91.347656 114.71875 93.132812 113.496094 94.859375 112.183594 C 95.335938 112.613281 95.804688 112.964844 96.476562 112.953125 C 96.535156 112.949219 96.589844 112.945312 96.644531 112.941406 C 96.699219 112.933594 96.753906 112.925781 96.808594 112.914062 C 96.859375 112.902344 96.914062 112.886719 96.964844 112.867188 C 97.019531 112.851562 97.070312 112.832031 97.121094 112.808594 C 97.171875 112.785156 97.21875 112.757812 97.269531 112.730469 C 97.316406 112.703125 97.363281 112.671875 97.40625 112.640625 C 97.449219 112.605469 97.492188 112.570312 97.535156 112.535156 C 97.574219 112.496094 97.613281 112.457031 97.648438 112.414062 C 98.09375 111.917969 98.144531 111.34375 98.109375 110.710938 C 99.738281 110.175781 101.335938 109.441406 102.929688 108.800781 C 105.390625 107.8125 107.863281 106.859375 110.316406 105.84375 C 111.851562 105.203125 113.40625 104.441406 114.992188 103.941406 L 115.09375 103.960938 C 114.726562 104.503906 112.6875 105.4375 112 105.835938 Z M 115.796875 102.480469 C 115.257812 103.027344 108.371094 103.730469 107.1875 103.875 C 103.65625 104.417969 100.101562 104.808594 96.566406 105.320312 C 96.464844 105.078125 96.351562 104.84375 96.230469 104.605469 C 96.917969 103.640625 97.890625 102.738281 98.722656 101.890625 C 100.34375 100.234375 102.035156 98.582031 103.527344 96.804688 C 107.757812 98.214844 111.71875 100.417969 115.984375 101.738281 C 115.960938 101.960938 115.960938 102.3125 115.796875 102.480469 Z M 116.398438 101.269531 L 116.320312 101.316406 C 115.367188 101.207031 113.921875 100.480469 113.007812 100.109375 C 110.003906 98.839844 106.996094 97.550781 103.925781 96.453125 C 105.539062 94.800781 107.144531 93.101562 108.667969 91.363281 C 108.71875 91.398438 108.71875 91.402344 108.769531 91.429688 C 109.179688 91.675781 109.597656 91.609375 110.039062 91.496094 C 112.171875 94.535156 114.167969 97.679688 116.230469 100.765625 C 116.332031 100.921875 116.433594 101.078125 116.398438 101.269531 Z M 117.210938 101.066406 C 116.351562 100.269531 115.171875 98.222656 114.429688 97.175781 C 114.078125 96.726562 113.769531 96.207031 113.453125 95.730469 L 111.507812 92.832031 C 111.175781 92.335938 110.863281 91.789062 110.472656 91.335938 C 110.695312 90.953125 110.945312 90.558594 110.992188 90.105469 C 111.035156 89.730469 110.941406 89.449219 110.703125 89.160156 C 112.628906 86.925781 114.78125 84.886719 116.832031 82.769531 C 116.835938 82.773438 116.839844 82.773438 116.84375 82.777344 C 116.925781 82.875 116.941406 82.925781 116.957031 83.050781 C 117.039062 83.664062 116.996094 84.34375 117.007812 84.964844 L 117.097656 88.519531 C 117.1875 92.707031 117.28125 96.878906 117.210938 101.066406 Z M 117.152344 72.941406 C 117.269531 72.867188 117.386719 72.789062 117.503906 72.714844 C 118.039062 72.355469 118.367188 71.953125 118.496094 71.3125 C 119.988281 71.300781 121.5 71.367188 122.988281 71.289062 C 123.550781 71.25 124.53125 71.21875 125.039062 71.449219 L 125.042969 71.535156 C 124.242188 72.347656 120.023438 74.242188 118.71875 74.945312 C 118.253906 75.199219 117.78125 75.441406 117.308594 75.679688 C 117.199219 74.773438 117.285156 73.855469 117.152344 72.941406 Z M 117.363281 77.878906 C 117.359375 77.347656 117.3125 76.820312 117.316406 76.289062 C 119.953125 74.863281 122.617188 73.492188 125.3125 72.179688 C 125.410156 72.269531 125.449219 72.320312 125.488281 72.445312 C 125.457031 72.609375 125.378906 72.703125 125.277344 72.832031 C 124.628906 73.632812 123.898438 74.386719 123.203125 75.148438 C 122.023438 76.453125 120.824219 77.742188 119.613281 79.011719 C 118.964844 79.691406 118.183594 80.671875 117.5 81.242188 L 117.460938 81.203125 C 117.242188 80.492188 117.375 78.71875 117.363281 77.875 Z M 123.519531 81.660156 C 122.726562 84.398438 121.914062 87.128906 121.089844 89.855469 L 118.753906 97.75 C 118.570312 98.375 118.445312 99.019531 118.25 99.640625 C 118.171875 99.898438 118.042969 100.390625 117.859375 100.570312 C 117.625 100.085938 117.785156 95.898438 117.714844 94.925781 C 117.765625 93.914062 117.660156 92.84375 117.644531 91.824219 C 117.625 90.511719 117.710938 89.097656 117.554688 87.800781 C 117.550781 85.917969 117.378906 84.011719 117.433594 82.132812 C 119.324219 80.039062 121.261719 77.984375 123.175781 75.914062 C 124.160156 74.847656 125.09375 73.664062 126.171875 72.691406 C 125.355469 75.703125 124.421875 78.675781 123.519531 81.660156 Z M 123.519531 81.660156 " fill-opacity="1" fill-rule="nonzero"/></g></svg>